HIERARCHY
ROOT joint_Root
{
	OFFSET 0.0 0.0 0.0
	CHANNELS 6 Xposition Yposition Zposition Zrotation Xrotation Yrotation 
	JOINT Hips
	{
		OFFSET 4.5925 91.4895 -427.239
		CHANNELS 6 Xposition Yposition Zposition Zrotation Xrotation Yrotation 
		JOINT Spine
		{
			OFFSET 15.7357 0.0 0.0
			CHANNELS 6 Xposition Yposition Zposition Zrotation Xrotation Yrotation 
			JOINT Chest
			{
				OFFSET 8.98455 -0.406207 0.0
				CHANNELS 6 Xposition Yposition Zposition Zrotation Xrotation Yrotation 
				JOINT Neck
				{
					OFFSET 16.3773 0.0 0.0
					CHANNELS 6 Xposition Yposition Zposition Zrotation Xrotation Yrotation 
					JOINT Head
					{
						OFFSET 6.45672 0.0 0.0
						CHANNELS 6 Xposition Yposition Zposition Zrotation Xrotation Yrotation 
						End Site
						{
							OFFSET 0.0 0.0 0.0
						}
					}
				}
				JOINT Shoulder_L
				{
					OFFSET 12.9942 -0.242716 4.98039
					CHANNELS 6 Xposition Yposition Zposition Zrotation Xrotation Yrotation 
					JOINT UpperArm_L
					{
						OFFSET 5.34809 0.0 0.0
						CHANNELS 6 Xposition Yposition Zposition Zrotation Xrotation Yrotation 
						JOINT LowerArm_L
						{
							OFFSET 24.3286 1.87007e-05 0.0
							CHANNELS 6 Xposition Yposition Zposition Zrotation Xrotation Yrotation 
							JOINT Hand_L
							{
								OFFSET 22.2916 0.0 0.0
								CHANNELS 6 Xposition Yposition Zposition Zrotation Xrotation Yrotation 
								End Site
								{
									OFFSET 0.0 0.0 0.0
								}
							}
						}
					}
				}
				JOINT Shoulder_R
				{
					OFFSET 12.9945 -0.242716 -4.98039
					CHANNELS 6 Xposition Yposition Zposition Zrotation Xrotation Yrotation 
					JOINT UpperArm_R
					{
						OFFSET -5.34813 0.0 0.0
						CHANNELS 6 Xposition Yposition Zposition Zrotation Xrotation Yrotation 
						JOINT LowerArm_R
						{
							OFFSET -24.3289 0.000322201 0.0
							CHANNELS 6 Xposition Yposition Zposition Zrotation Xrotation Yrotation 
							JOINT Hand_R
							{
								OFFSET -22.2915 -0.000108084 0.0
								CHANNELS 6 Xposition Yposition Zposition Zrotation Xrotation Yrotation 
								End Site
								{
									OFFSET 0.0 0.0 0.0
								}
							}
						}
					}
				}
			}
		}
		JOINT UpperLeg_L
		{
			OFFSET -2.19248 -6.46944 0.0
			CHANNELS 6 Xposition Yposition Zposition Zrotation Xrotation Yrotation 
			JOINT LowerLeg_L
			{
				OFFSET 39.0811 0.0 -1.23785e-05
				CHANNELS 6 Xposition Yposition Zposition Zrotation Xrotation Yrotation 
				JOINT Foot_L
				{
					OFFSET 40.9854 0.0 -1.26872e-05
					CHANNELS 6 Xposition Yposition Zposition Zrotation Xrotation Yrotation 
					JOINT Toes_L
					{
						OFFSET 11.7543 0.0 0.0
						CHANNELS 6 Xposition Yposition Zposition Zrotation Xrotation Yrotation 
						End Site
						{
							OFFSET 0.0 0.0 0.0
						}
					}
				}
			}
		}
		JOINT UpperLeg_R
		{
			OFFSET -2.19251 6.46944 0.0
			CHANNELS 6 Xposition Yposition Zposition Zrotation Xrotation Yrotation 
			JOINT LowerLeg_R
			{
				OFFSET -39.0811 -0.00228153 -0.0401928
				CHANNELS 6 Xposition Yposition Zposition Zrotation Xrotation Yrotation 
				JOINT Foot_R
				{
					OFFSET -40.9854 0.0 0.0
					CHANNELS 6 Xposition Yposition Zposition Zrotation Xrotation Yrotation 
					JOINT Toes_R
					{
						OFFSET -11.7543 0.0 0.0
						CHANNELS 6 Xposition Yposition Zposition Zrotation Xrotation Yrotation 
						End Site
						{
							OFFSET 0.0 0.0 0.0
						}
					}
				}
			}
		}
	}
}
MOTION
Frames:	6
Frame Time:	0.0333333
0.000000 0.000000 0.000000 0.000000 0.000000 -0.000000 -4.168280 91.419100 0.405986 88.479800 8.713100 2.263870 15.735700 0.000005 -0.000001 100.672000 85.981300 -103.370000 8.984550 -0.406207 -0.000000 0.177682 1.666580 -5.396000 16.377300 -0.000001 -0.000001 4.384170 -6.033810 4.767500 6.456720 -0.000001 -0.000000 -1.990860 -3.519370 -4.258210 12.994200 -0.242716 4.980390 -91.860700 5.027610 -69.660000 5.348090 -0.000007 -0.000001 -63.835100 20.322100 -6.724770 24.328600 0.000019 0.000005 5.836730 19.594500 -16.952200 22.291600 -0.000001 0.000005 14.975400 5.138170 4.224640 12.994500 -0.242716 -4.980390 93.342100 -8.416690 -68.249700 -5.348130 -0.000001 -0.000004 -48.712600 -58.275900 -95.343400 -24.328900 0.000322 -0.000009 -2.527500 -2.058670 -50.844400 -22.291500 -0.000108 -0.000004 19.558100 5.524230 -7.544020 -2.192480 -6.469440 -0.000000 -172.975000 -4.720510 -8.275020 39.081100 -0.000007 -0.000012 -0.194232 0.374102 27.438500 40.985400 -0.000006 -0.000013 -1.839030 9.010890 -67.398000 11.754300 -0.000000 0.000003 -0.000218 -0.001991 -16.652500 -2.192510 6.469440 -0.000001 -179.768000 28.506600 175.949000 -39.081100 -0.002282 -0.040193 -0.020812 0.050524 25.522700 -40.985400 0.000008 0.000006 6.876170 8.316670 -70.394700 -11.754300 -0.000006 -0.000006 -0.002358 -0.033107 -17.919400
0.000000 0.000000 0.000000 0.000000 0.000000 -0.000000 -3.986070 91.443100 0.330979 88.540600 8.209390 2.251540 15.735700 0.000005 -0.000001 99.779100 85.953100 -102.405000 8.984550 -0.406207 -0.000000 0.251287 1.546390 -5.251370 16.377300 -0.000001 -0.000001 4.287290 -5.695780 4.659300 6.456720 -0.000001 -0.000000 -1.994540 -3.081320 -3.952840 12.994200 -0.242716 4.980390 -91.856500 5.039140 -69.745300 5.348090 -0.000007 -0.000001 -63.543300 21.681400 -7.335210 24.328600 0.000019 0.000005 6.037270 19.170200 -17.852400 22.291600 -0.000001 0.000005 14.869300 5.142950 4.111330 12.994500 -0.242716 -4.980390 92.992200 -7.723470 -68.746700 -5.348130 -0.000001 -0.000004 -46.556500 -57.191800 -90.590900 -24.328900 0.000322 -0.000009 -3.122790 -2.120270 -55.845400 -22.291500 -0.000108 -0.000004 19.784000 5.517850 -7.271050 -2.192480 -6.469440 -0.000000 -173.153000 -5.226690 -8.162920 39.081100 -0.000007 -0.000012 -0.191221 0.369699 27.349800 40.985400 -0.000006 -0.000013 -1.703510 8.984450 -67.376600 11.754300 -0.000000 0.000003 -0.000216 -0.001975 -16.651900 -2.192510 6.469440 -0.000001 -179.982000 28.280500 175.889000 -39.081100 -0.002282 -0.040193 -0.027199 0.063902 25.521900 -40.985400 0.000008 0.000006 6.671760 8.675780 -70.262900 -11.754300 -0.000006 -0.000006 -0.002329 -0.032758 -17.905200
0.000000 0.000000 0.000000 0.000000 0.000000 -0.000000 -3.754220 91.464600 0.254065 88.680700 7.534880 2.232090 15.735700 0.000005 -0.000001 99.006700 85.913500 -101.577000 8.984550 -0.406207 -0.000000 0.343951 1.445420 -5.140710 16.377300 -0.000001 -0.000001 4.111370 -5.266130 4.490930 6.456720 -0.000001 -0.000000 -2.003150 -2.627780 -3.693380 12.994200 -0.242716 4.980390 -91.879300 5.112210 -69.784500 5.348090 -0.000007 -0.000001 -63.142900 23.121800 -8.129320 24.328600 0.000019 0.000005 6.190610 18.850300 -18.557700 22.291600 -0.000001 0.000005 14.607600 5.151980 3.895930 12.994500 -0.242716 -4.980390 92.552700 -6.851860 -69.510600 -5.348130 -0.000001 -0.000004 -44.201000 -55.540600 -84.761700 -24.328900 0.000322 -0.000009 -3.526810 -1.861950 -62.193200 -22.291500 -0.000108 -0.000004 19.789800 5.504930 -6.733900 -2.192480 -6.469440 -0.000000 -173.446000 -5.877760 -8.002540 39.081100 -0.000007 -0.000012 -0.186028 0.361349 27.240400 40.985400 -0.000006 -0.000013 -1.538210 8.900380 -67.366600 11.754300 -0.000000 0.000003 -0.000222 -0.002020 -16.653500 -2.192510 6.469440 -0.000001 179.676000 27.892400 175.786000 -39.081100 -0.002282 -0.040193 -0.039384 0.089125 25.596100 -40.985400 0.000008 0.000006 6.336330 9.104800 -70.123300 -11.754300 -0.000006 -0.000006 -0.002397 -0.033584 -17.938800
0.000000 0.000000 0.000000 0.000000 0.000000 -0.000000 -3.519630 91.496300 0.180305 88.779000 6.716920 2.286460 15.735700 0.000005 -0.000001 98.347100 85.855400 -100.857000 8.984550 -0.406207 -0.000000 0.470457 1.362630 -5.021360 16.377300 -0.000001 -0.000001 3.941850 -4.753660 4.244980 6.456720 -0.000001 -0.000000 -1.963020 -2.210050 -3.393780 12.994200 -0.242716 4.980390 -91.907400 5.186140 -69.775300 5.348090 -0.000007 -0.000001 -62.797100 24.194000 -9.008730 24.328600 0.000019 0.000005 6.400600 18.865700 -19.132900 22.291600 -0.000001 0.000005 14.290200 5.157540 3.762300 12.994500 -0.242716 -4.980390 92.001800 -5.629870 -70.391000 -5.348130 -0.000001 -0.000004 -41.518600 -53.065500 -78.015400 -24.328900 0.000322 -0.000009 -3.554960 -1.339690 -69.370600 -22.291500 -0.000108 -0.000004 19.859100 5.493140 -6.260070 -2.192480 -6.469440 -0.000000 -173.662000 -6.746490 -7.719590 39.081100 -0.000007 -0.000012 -0.184029 0.360016 27.074900 40.985400 -0.000006 -0.000013 -1.361640 8.913080 -67.342300 11.754300 -0.000000 0.000003 -0.000230 -0.002085 -16.655900 -2.192510 6.469440 -0.000001 179.350000 27.608800 175.779000 -39.081100 -0.002282 -0.040193 -0.044096 0.098938 25.602000 -40.985400 0.000008 0.000006 6.219160 9.686100 -69.987900 -11.754300 -0.000006 -0.000006 -0.002207 -0.031273 -17.844800
0.000000 0.000000 0.000000 0.000000 0.000000 -0.000000 -3.272960 91.501200 0.141933 88.870400 5.777460 2.374430 15.735700 0.000005 -0.000001 97.891300 85.795300 -100.329000 8.984550 -0.406207 -0.000000 0.596456 1.306590 -4.878690 16.377300 -0.000001 -0.000001 3.812080 -4.181130 3.855150 6.456720 -0.000001 -0.000000 -1.915360 -1.768470 -2.994280 12.994200 -0.242716 4.980390 -91.959900 5.329120 -69.774300 5.348090 -0.000007 -0.000001 -62.432600 25.183800 -9.769810 24.328600 0.000019 0.000005 6.536450 18.586000 -19.773000 22.291600 -0.000001 0.000005 14.124900 5.160540 3.689860 12.994500 -0.242716 -4.980390 91.381300 -4.146590 -71.560500 -5.348130 -0.000001 -0.000004 -38.603000 -49.799700 -70.407000 -24.328900 0.000322 -0.000009 -3.343910 -0.777738 -76.917500 -22.291500 -0.000108 -0.000004 19.874100 5.481220 -5.795180 -2.192480 -6.469440 -0.000000 -173.863000 -7.659220 -7.442510 39.081100 -0.000007 -0.000012 -0.183872 0.360003 27.056000 40.985400 -0.000006 -0.000013 -1.187340 8.856090 -67.423000 11.754300 -0.000000 0.000003 -0.000211 -0.001937 -16.650500 -2.192510 6.469440 -0.000001 178.915000 27.348800 175.807000 -39.081100 -0.002282 -0.040193 -0.066282 0.144663 25.690600 -40.985400 0.000008 0.000006 5.746130 10.537800 -69.841200 -11.754300 -0.000006 -0.000006 -0.002201 -0.031206 -17.842000
0.000000 0.000000 0.000000 0.000000 0.000000 -0.000000 -3.028880 91.514000 0.103301 88.944400 4.884320 2.552790 15.735700 0.000005 -0.000001 97.021300 85.708400 -99.369000 8.984550 -0.406207 -0.000000 0.781769 1.191800 -4.700110 16.377300 -0.000001 -0.000001 3.649780 -3.614850 3.428320 6.456720 -0.000001 -0.000000 -1.885660 -1.349270 -2.651450 12.994200 -0.242716 4.980390 -92.024600 5.494900 -69.737500 5.348090 -0.000007 -0.000001 -62.075900 26.091100 -10.503800 24.328600 0.000019 0.000005 6.607360 18.162900 -20.384900 22.291600 -0.000001 0.000005 14.023600 5.164860 3.585520 12.994500 -0.242716 -4.980390 90.782300 -2.519910 -72.751900 -5.348130 -0.000001 -0.000004 -35.993100 -45.432000 -62.489700 -24.328900 0.000322 -0.000009 -3.197010 -0.328215 -84.141800 -22.291500 -0.000108 -0.000004 19.744500 5.470580 -5.391680 -2.192480 -6.469440 -0.000000 -174.041000 -8.503930 -7.055770 39.081100 -0.000007 -0.000012 -0.179515 0.352444 26.991900 40.985400 -0.000006 -0.000013 -1.013670 8.785500 -67.491500 11.754300 -0.000000 0.000003 -0.000211 -0.001939 -16.650600 -2.192510 6.469440 -0.000001 178.431000 27.338700 175.980000 -39.081100 -0.002282 -0.040193 -0.082814 0.178836 25.714800 -40.985400 0.000008 0.000006 5.452870 11.566600 -69.709300 -11.754300 -0.000006 -0.000006 -0.002159 -0.030693 -17.821200
